<?xml version="1.0" encoding="UTF-8"?>
<svg xmlns="http://www.w3.org/2000/svg" xmlns:xlink="http://www.w3.org/1999/xlink" version="1.1" viewBox="0 0 189.5 189.5">
  <defs>
    <style>
      .cls-1 {
        stroke: #a3195b;
      }

      .cls-1, .cls-2, .cls-3, .cls-4 {
        fill: none;
        stroke-miterlimit: 10;
        stroke-width: 2px;
      }

      .cls-2 {
        stroke: #3aaa35;
      }

      .cls-3 {
        stroke: #063;
      }

      .cls-4 {
        stroke: #e6007e;
      }

      .cls-5 {
        display: none;
      }
    </style>
  </defs>
  <!-- Generator: Adobe Illustrator 28.7.1, SVG Export Plug-In . SVG Version: 1.2.0 Build 142)  -->
  <g>
    <g id="Laag_1" class="cls-5">
      <g id="_x33_GFr4w">
        <image id="_x33_GFr4w-2" data-name="_x33_GFr4w" width="300" height="168" transform="translate(-66.2 9.2)" xlink:href="bloem-1.png"/>
      </g>
    </g>
    <g id="Laag_2">
      <path class="cls-3" d="M88.5,137.4c-1,1.1-10.7,11.7-25.7,10.1-13-1.3-20.1-10.8-21.3-12.4-.5-1.5-1.3-3.8-2.1-6.7-1.5-5.3-1.3-6-2.4-8.9-1.5-3.9-3.5-6.6-4.9-8.6-1.9-2.6-3.8-4.7-5.2-6.1,4.6-.7,8.4-.8,11-.7,6.2,0,12.6.2,19.5,3.5,3.1,1.5,5.5,3.2,6.9,4.4,3.2,2.7,5.7,4.6,7,5.8,7.6,7.1,15.7,17.7,17.1,19.5Z"/>
      <path class="cls-3" d="M98.1,170.8c.5-4.2.7-11.3-1.8-19.5-2.1-7.1-5.4-12.3-7.8-15.6-3-7-3.9-12.9-4.2-16.8-.4-4.9,0-8.8.7-14,.8-6.6,2-12.1,3-15.9"/>
      <path class="cls-3" d="M144.2,98.5c-3.4,1.6-8.7,3.9-15.6,5.2-6.1,1.2-7.6.5-11.8,1.7-10.1,2.6-16.3,9.9-17.9,11.9-6.8,8.1-8.2,16.7-8.6,20,15.3,7.3,33,4.5,44-6.5,12.6-12.7,10.3-30.2,10-32.3Z"/>
      <path class="cls-1" d="M88.5,90.5c10.7,9.4,25.3,9.4,33.1,2.1,7.4-6.9,6.1-17.9,5.9-19.3,6.1,1.9,12.2-.8,14.1-5.1,2.2-5.1-1.4-13.1-9.2-14.9,5-5,6.8-12.1,4.4-17.7-3.2-7.6-13.9-11.8-23.6-7.2-.9-7.4-7-11.9-11.9-11-3.2.6-5.9,3.4-7.2,7-3.6-5.9-10-9.4-16.6-9.1-8,.4-15,6.2-17.1,14.5-8.2-2-16.6,1.5-20.6,8.3-4.6,7.9-2.2,18.8,6.1,24.6-5.8,3.5-7.8,10.6-5.2,16,3,6.1,11.4,8.8,18.1,4.7.4,1.8,2,7,6.8,10.2,6.3,4.2,15.8,3.1,22.9-3Z"/>
      <path class="cls-4" d="M86.8,89.6c11,6,23.1,2.3,26.9-5.2,3.9-7.6-1.8-16.6-2.1-17,8,0,14.4-6.6,14.1-14.2-.3-7.1-6.5-13.1-14.1-13-.5-5.1-4.2-9.4-9.1-10.8-5.1-1.4-10.6.7-13.5,5.1-11.4-4.7-21.6-.7-23.7,5.1-1.9,5.1,2.6,11,3.3,11.9-6.8.5-11.6,5.2-11.7,9.5-.2,5.1,6.1,11.3,14.6,10.1,1.2,4.4,4.5,7.8,8.7,8.7,5.3,1.2,11-1.7,13.5-7.2,4.6,3.6,10.9,2.1,13-1.8,1.8-3.4.5-8.5-3.7-11.1,4.1-.8,6.6-4.5,6-7.4-.6-3.3-5.1-6.1-9.7-4.4-.5-4-4.1-7-8.1-6.8-4.1.3-7.3,3.8-7.1,7.9-5.5-.5-9.7,3.8-9.6,7.6.1,3.9,4.7,8,10.4,6.9,4.4,0,7.7-3.9,7.3-8-.4-3.8-4-6.9-8.1-6.5"/>
      <path class="cls-2" d="M90.3,137.3c7.2-2.3,16.4-6.1,26.2-12.5,13.5-8.9,22.4-19,27.8-26.3"/>
      <path class="cls-2" d="M88.5,137.4c-7.5-1.3-17-3.7-27.4-8.4-16.2-7.3-27.4-17.1-34.2-24.1"/>
    </g>
  </g>
</svg>