<?xml version="1.0" encoding="UTF-8"?>
<svg xmlns="http://www.w3.org/2000/svg" xmlns:xlink="http://www.w3.org/1999/xlink" version="1.1" viewBox="0 0 235 272">
  <defs>
    <style>
      .cls-1 {
        fill: url(#Naamloos_verloop);
      }

      .cls-1, .cls-2, .cls-3, .cls-4, .cls-5, .cls-6, .cls-7, .cls-8 {
        stroke-miterlimit: 10;
      }

      .cls-1, .cls-2, .cls-3, .cls-5, .cls-7, .cls-8 {
        stroke: #1d1d1b;
      }

      .cls-2 {
        fill: url(#Naamloos_verloop-2);
      }

      .cls-3 {
        fill: #a98152;
        stroke-width: 2px;
      }

      .cls-4 {
        stroke: #397e3e;
      }

      .cls-4, .cls-6 {
        fill: #397e3f;
      }

      .cls-5 {
        stroke-width: 3px;
      }

      .cls-5, .cls-7 {
        fill: none;
      }

      .cls-6 {
        stroke: #397e3f;
      }

      .cls-9 {
        display: none;
      }

      .cls-8 {
        fill: #77512c;
      }
    </style>
    <linearGradient id="Naamloos_verloop" data-name="Naamloos verloop" x1="138.6" y1="40.7" x2="153.6" y2="40.7" gradientUnits="userSpaceOnUse">
      <stop offset="0" stop-color="#fff"/>
      <stop offset="1" stop-color="#1d1d1b"/>
    </linearGradient>
    <linearGradient id="Naamloos_verloop-2" data-name="Naamloos verloop" x1="73.5" y1="172" x2="92.2" y2="172" xlink:href="#Naamloos_verloop"/>
  </defs>
  <!-- Generator: Adobe Illustrator 28.7.1, SVG Export Plug-In . SVG Version: 1.2.0 Build 142)  -->
  <g>
    <g id="Laag_1" class="cls-9">
      <image width="470" height="544" transform="scale(.5)" xlink:href="../../../../../Desktop/Scherm­afbeelding 2024-11-07 om 16.53.44.png"/>
    </g>
    <g id="Laag_2">
      <path class="cls-5" d="M148.6,52.1c-37.8-21.8-83.5-4.9-96.9,27.8-11.1,27,.8,62.6,30.8,80.6.4.3.9.7,1.6,1,0,0,0,0,.1,0,.4.2,1.2.4,2.4.5,1,.6,1.8.9,2.4,1.1.4.1.8.3,1.4.4.7.2,1.4.4,1.8.5,1.2.4,3.9,1.4,7.8,2.3s3.2.7,5,1.1c12.2,2.2,30.9,2.9,47.9-7.8,10.1-6.3,16.3-14.4,19.8-20.3,2-3.8,14-28.3,3.1-55.5-7.6-18.9-22-28.5-27.3-31.7Z"/>
      <path class="cls-1" d="M148,30c-2,1.8-5.1,5.1-7.2,10-1.4,3.2-1.9,6-2.2,8.2.9.8,5.1,4.3,8.2,2.9,1.3-.6,1.5-1.7,3.6-7.1.6-1.4,1.1-2.7,1.5-3.7,1.6-4,2.1-5.1,1.5-6.5-.3-.8-1.4-2.7-5.4-3.8Z"/>
      <path class="cls-5" d="M151.9,40.3c35.7,17.4,53.2,56.3,44,88.5-11.3,39.4-61.1,64.8-107.1,45.5"/>
      <path class="cls-3" d="M65.9,227.8c7.8,3.6,22.1,9,40.6,9,15.7,0,28.2-3.8,35.8-6.8.7-2.4,1.3-5.3,1.6-8.6.5-5,.1-9.3-.4-12.6-1.6-1.8-5.5-5.8-12-7.8-6.7-2.1-12.4-.9-14.7-.3l2.9,5.7c-1.5,1-5.5,3.5-11.2,3.6-6.3.1-10.7-2.8-12.2-3.8,1.4-2.4,2.9-4.8,4.3-7.3-5.9-1.4-10.8-1.4-14.1-1.1-4.4.3-8.8.7-13.4,3.4-3.5,2-5.7,4.7-7,6.6,0,6.7-.1,13.3-.2,20Z"/>
      <path class="cls-8" d="M66,212.1c5,3.6,19.3,13.1,40,13.4,17.5.3,37.1-4.3,38-10.6.1-.8.2-3.4-1.2-5.8-1-1.6-2.3-2.5-4.7-4.2-1.1-.8-2.9-2-5-3-6.2-2.8-14.5-2.5-15.2-.3-.4,1.4,2.3,2.7,1.8,4.9-.2.6-.6,1.5-2.9,2.7-4.3,2.3-8.6,2.2-9.1,2.2-6.2-.2-12.8-3.3-12.7-5.6,0-.4.2-.5,2.4-3.3,1.7-2.3,1.9-2.4,1.9-2.7,0-.4-.6-1.1-11.4-1.8-1.8-.1-3.7-.2-6.1,0-1.3.2-2.5.3-4.1.8-3.4,1.1-5.6,3-7.4,4.6-1.1,1-2.6,2.5-4.1,4.5"/>
      <path class="cls-7" d="M96.2,206.3c1.8-1.7,5.2-5.5,7-11.3,2.3-7.3.7-13.5,0-15.9h12.9c-1,2.2-2.9,7.1-2.3,13.4.7,7.2,4.3,12.1,5.7,13.9"/>
      <path class="cls-6" d="M100.8,43.2c.6.8,4.3,6.3,2.4,12.8-.9,3.3-2.9,5.4-4,6.5.9,1.4,2.1,3.4,2.8,6.1,1.2,4.3.6,8,.2,10-.6.5-3.5,2.9-7.7,2.6-5.1-.3-7.9-4.1-8.3-4.6-3.2-2.4-7.4-2.2-9.8.2-1.8,1.7-2.4,4.4-1.7,7,.5,1,1.3,2.5,3,3.3,2,1,3.6.1,5.8.5,1.6.3,3.8,1.2,6.1,4.5.5,1,3.1,6.8.5,13.3-3.2,8.2-11.7,10.2-12.4,10.3.3,1.3.5,3.1.2,5.1-.7,4.6-3.7,7.3-4.5,8-1.5,1.4-3.1,2.2-4.2,2.6-1,1.3-2.4,3.6-3.1,6.8-1.2,4.7.5,8.1-.2,8.4-1.2.6-7.9-8.3-12.2-19-2.6-6.4-10.5-25.7-3.5-45.9,6.9-19.9,26.2-34.4,49.3-38.4"/>
      <path class="cls-4" d="M153.6,55.5c-2.4,1.4-7.9,5.1-10.7,12.1-1,2.4-1.4,4.6-1.6,6.5-11.3-1.6-20.3,6.5-20.3,14.3,0,5.7,4.6,11.6,11.5,14,.5,1.3.3,2.2.2,2.6-.7,2.2-3.8,3.6-7.7,3.1-12.4-4.7-24.4,1.8-26.6,10.3-1.5,5.9,1.5,12.9,7.3,17.7,2.4.5,4.5.7,5.9.8,2.5.2,3.5.1,4.2.9,1,1,.5,2.4.7,5.1,0,1.4.4,3.5,1.2,5.9,3.5,6.3,10.3,9.5,16.3,8,6-1.5,8.7-7,9.1-7.9.7-1.1,1.8-2.6,3-4.5,3.7-5.8,4.1-7.3,5.6-7.9.8-.3,3.8-1.2,9.8,4.5.4,2.8,1.3,6,3.1,6.4,3.7.8,10-11.2,12.9-20.8,4.7-15.8,1.8-29.6.5-34.7-4.1-15.7-13-25.9-17.6-30.6"/>
      <path class="cls-5" d="M73.5,172.7"/>
      <path class="cls-5" d="M78.3,174"/>
      <path class="cls-2" d="M82.5,160.5c-1.6,2.7-3.3,5.7-4.9,9-1.6,3.4-3,6.6-4,9.6.8.9,2.5,2.4,4.9,3.4,2,.8,3.9,1,5,1,1.4-2.3,2.8-4.8,4.2-7.7,2-4.3,3.4-8.3,4.4-11.8"/>
      <path class="cls-5" d="M87.3,46.8c8.1-3.1,16.3-4,16.3-4,4.9-.5,8.6-.4,14.8,0,1.1,0,4.6.2,9.1,1,5.1.9,6.6,1.8,7.1,2.1,2.6,1.6,2.7,3,5.2,4.6,2.9,1.8,5.8,1.9,6.7,2,6.4.6,17.8,10.9,24.5,21.4,14.2,22.1,8.6,46.4,8,48.7-4.6,18.5-16.3,29.5-20.9,33.4-10,6.8-19.3,9.6-25.2,10.9-21.3,4.7-38.6-1.7-44-3.7-2.4-.9-5.1-2-8.5-3.9-17.3-9.8-24.6-26.2-26.9-31.4-3-6.9-11-25.2-3.5-45.9,0,0,8.8-24.2,37.2-35Z"/>
      <path class="cls-5" d="M84.8,158.9"/>
      <path class="cls-3" d="M118.1,200.7"/>
    </g>
  </g>
</svg>